<svg id="Bold" enable-background="new 0 0 24 24" height="512" viewBox="0 0 24 24" width="512" xmlns="http://www.w3.org/2000/svg"><path d="m12.82 9.618c-7.242 3.732-2.425 13.745 6.61 11.131.842.327 1.592.857 2.408 1.251-.211-.71-.436-1.412-.676-2.111 2.8-1.995 3.414-4.818 2.379-7.138-1.616-3.677-6.776-5.183-10.721-3.133zm2.53 3.658c-.209.655-1.156.851-1.615.353-.506-.461-.309-1.424.355-1.63.734-.31 1.582.541 1.26 1.277zm4.78.094h.014c-.257.587-1.141.725-1.575.27-.209-.192-.27-.481-.344-.733.104-.46.42-.937.93-.959.705-.098 1.336.776.975 1.422z"/><path d="m17.414 8.248c-.436-2.144-1.936-3.955-3.824-5h.027v-.001c-6.7-3.786-15.042 1.495-13.43 7.723.433 1.848 1.711 3.397 3.262 4.431-.3.853-.585 1.706-.855 2.565.975-.512 1.95-1.047 2.926-1.567 1.17.377 2.415.561 3.66.52-1.538-4.412 2.407-9.086 8.234-8.671zm-6.077-2.561c.785-.316 1.713.345 1.651 1.19l.002.012c.008.965-1.275 1.567-1.995.913-.747-.538-.535-1.845.342-2.115zm-4.405 1.447c-.172.838-1.291 1.243-1.946.68-.759-.537-.546-1.868.345-2.139.873-.338 1.865.552 1.601 1.459z"/></svg>